<!DOCTYPE svg PUBLIC "-//W3C//DTD SVG 1.1//EN" "http://www.w3.org/Graphics/SVG/1.1/DTD/svg11.dtd">

<!-- Uploaded to: SVG Repo, www.svgrepo.com, Transformed by: SVG Repo Mixer Tools -->
<svg width="20px" height="20px" viewBox="-1.44 -1.44 38.88 38.88" xmlns="http://www.w3.org/2000/svg" xmlns:xlink="http://www.w3.org/1999/xlink" aria-hidden="true" role="img" class="iconify iconify--twemoji" preserveAspectRatio="xMidYMid meet" fill="#2E8B57" transform="rotate(270)">

<g id="SVGRepo_bgCarrier" stroke-width="0"/>

<g id="SVGRepo_tracerCarrier" stroke-linecap="round" stroke-linejoin="round"/>

<g id="SVGRepo_iconCarrier">

<path fill="transparent" d="M36 32a4 4 0 0 1-4 4H4a4 4 0 0 1-4-4V4a4 4 0 0 1 4-4h28a4 4 0 0 1 4 4v28z"/>

<path fill="#2E8B57" d="M20.589 30.2l6-7.2H23v-7.611c0-5.523-4.683-10-10.206-10c-1.414 0-2.861.297-4.081.827l2.699 3.3a7.861 7.861 0 0 1 1.408-.127c3.314 0 6.18 2.686 6.18 6V23h-4.411l6 7.2z"/>

</g>

</svg>